<svg xmlns="http://www.w3.org/2000/svg" viewBox="0 0 14 14"><path fill-rule="evenodd" clip-rule="evenodd" fill="#C1C1C1" d="M7 0C3.134 0 0 3.134 0 7s3.134 7 7 7 7-3.134 7-7-3.134-7-7-7zm2.854 9.146c.195.195.195.512 0 .707-.098.098-.226.147-.354.147s-.256-.049-.354-.146L7 7.707 4.854 9.854c-.098.097-.226.146-.354.146s-.256-.049-.354-.146c-.195-.195-.195-.512 0-.707L6.293 7 4.146 4.854c-.195-.195-.195-.512 0-.707s.512-.195.707 0L7 6.293l2.146-2.146c.195-.195.512-.195.707 0s.195.512 0 .707L7.707 7l2.147 2.146z"/></svg>