<svg xmlns="http://www.w3.org/2000/svg" viewBox="0 0 300 16"><circle fill="#99A59B" cx="4" cy="6.207" r="1"/><circle fill="#99A59B" cx="14" cy="6.207" r="1"/><circle fill="#99A59B" cx="24" cy="6.207" r="1"/><circle fill="#99A59B" cx="34" cy="6.207" r="1"/><circle fill="#99A59B" cx="44" cy="6.207" r="1"/><circle fill="#99A59B" cx="54" cy="6.207" r="1"/><circle fill="#99A59B" cx="246" cy="6.207" r="1"/><circle fill="#99A59B" cx="256" cy="6.207" r="1"/><circle fill="#99A59B" cx="266" cy="6.207" r="1"/><circle fill="#99A59B" cx="276" cy="6.207" r="1"/><circle fill="#99A59B" cx="286" cy="6.207" r="1"/><circle fill="#99A59B" cx="296" cy="6.207" r="1"/><path fill="#5C635E" d="M83.77 3.521h1.708c-.336 2.091-1.036 3.948-2.1 5.572l.504.812c.336-.476.644-.966.924-1.47v5.698h.938v-1.064h1.512v.798h.924v-7.196h-2.576c.345-.933.621-1.983.826-3.15h2.114v-.98h-4.774v.98zm1.974 4.074h1.512v4.564h-1.512v-4.564zm3.136 2.996h5.124v.952h-5.124zM95.208 2.345h-6.02v.952h4.928l-.7 4.578h-2.968l.616-3.528-.994-.07-.756 4.536h5.656c0 2.24-.112 3.598-.336 4.074-.215.457-.859.686-1.932.686-.252 0-.686-.028-1.302-.084l.28.98c.448.028.868.042 1.26.042 1.213 0 2.021-.257 2.422-.77.373-.541.56-2.497.56-5.866h-1.484l.77-5.53zm3.752 1.82h9.856v2.156h1.008v-3.122h-5.264c-.196-.588-.392-1.106-.588-1.554l-1.148.196c.233.42.443.873.63 1.358h-5.502v3.122h1.008v-2.156zM104.574 8.491c1.204-.663 2.221-1.288 3.052-1.876v-.938h-7.518v.938h6.006c-.653.411-1.507.891-2.562 1.442v1.372h-5.852v.98h5.852v2.618c0 .411-.182.616-.546.616-.42 0-.957-.009-1.61-.028l.238.924h1.722c.812 0 1.218-.387 1.218-1.162v-2.968h5.516v-.98h-5.516v-.938zm15.596-2.24l-.728.686c1.689 1.381 3.024 2.688 4.004 3.92l.77-.784c-1.101-1.288-2.45-2.562-4.046-3.822zM123.838 2.485h-11.9v.994h6.216c-1.232 2.595-3.435 4.807-6.608 6.636l.658.882c2.128-1.279 3.85-2.735 5.166-4.368v7.994h1.036v-9.478c.336-.551.625-1.106.868-1.666h4.564v-.994zm6.874 4.718h5.502v-4.928h-8.582v4.928h1.946c-.775 1.017-2.016 1.867-3.724 2.548l.546.896c.896-.411 1.699-.882 2.408-1.414h2.142c-.887 1.185-2.333 2.147-4.34 2.884l.63.77c2.193-.868 3.78-2.086 4.76-3.654h1.848c-1.073 2.203-2.847 3.696-5.32 4.48l.574.84c2.641-.868 4.564-2.641 5.768-5.32h1.344c-.075 1.801-.219 2.977-.434 3.528-.224.532-.677.798-1.358.798-.504 0-1.036-.014-1.596-.042l.266.938h1.806c.663-.028 1.143-.215 1.442-.56.289-.355.504-.994.644-1.918.121-.924.205-2.137.252-3.64h-7.42c.364-.401.663-.779.896-1.134zm-2.086-4.06h6.594v1.19h-6.594v-1.19zm0 3.206v-1.204h6.594v1.204h-6.594zm12.81 5.194c-.252 0-.457.075-.616.224-.159.131-.238.336-.238.616 0 .243.079.439.238.588.177.149.383.224.616.224l.224-.028c-.056.728-.448 1.33-1.176 1.806l.378.602c1.055-.579 1.582-1.47 1.582-2.674 0-.905-.336-1.358-1.008-1.358zm15.414-6.804l.686-.7c-.663-.737-1.451-1.447-2.366-2.128l-.714.686c1.008.756 1.806 1.47 2.394 2.142zm5.6.504h2.968v-.812h-2.968v-.938h3.472v-.826h-3.472v-.91h-.966v.91h-3.388v.826h3.388v.938h-2.828v.812h2.828v.952h-3.78v.84h8.568v-.84h-3.822m-6.006 5.992v-6.146h-2.968v.966h2.002v5.558c0 .233-.107.448-.322.644l.392.896c.887-.644 1.717-1.367 2.492-2.17l-.266-1.064c-.523.532-.966.971-1.33 1.316zm2.324 2.408h.966v-2.226h4.522v.798c0 .327-.173.49-.518.49l-1.12-.042.238.896h1.176c.793 0 1.19-.378 1.19-1.134v-5.46h-6.454v6.678zm.966-5.852h4.522v1.036h-4.522v-1.036zm0 1.82h4.522v1.022h-4.522v-1.022zm14.168-4.522l.588.77c.709-.476 1.251-1.013 1.624-1.61.271-.504.476-1.073.616-1.708h2.058c-.028 1.017-.084 1.643-.168 1.876-.103.243-.345.369-.728.378l-1.204-.07.238.84c.597.037.989.056 1.176.056.588 0 1.013-.187 1.274-.56.252-.383.378-1.521.378-3.416h-5.838v.896h1.862c-.093.457-.247.868-.462 1.232-.317.514-.789.952-1.414 1.316zm-1.232-2.534v-.7h-2.492l.35-.896-.91-.21c-.551 1.465-1.241 2.641-2.072 3.528l.616.742.14-.154v4.298c-.019 1.596-.294 2.917-.826 3.962l.686.63c.513-.933.831-2.091.952-3.472h1.33v3.164h.812v-3.164h1.302v1.946c0 .345-.154.518-.462.518-.14 0-.387-.019-.742-.056l.238.84h.798c.681 0 1.022-.331 1.022-.994v-8.4h-1.68c.336-.466.649-.994.938-1.582zm-2.226 6.874h-1.288l.014-.168v-1.666h1.274v1.834zm0-2.674h-1.274v-1.75h1.274v1.75zm.266-2.618h-1.82c.373-.532.672-1.017.896-1.456h1.82c-.345.607-.644 1.092-.896 1.456zm1.848 5.292h-1.302v-1.834h1.302v1.834zm0-4.424v1.75h-1.302v-1.75h1.302zm5.278 3.318h2.086v-.91h-2.086v-1.302h-.98v1.302h-1.288c.084-.327.168-.677.252-1.05l-.84-.154c-.205 1.111-.616 2.002-1.232 2.674l.588.714c.317-.345.607-.77.868-1.274h1.652v1.708h-3.052v.91h3.052v2.744h.98v-2.744h2.38v-.91h-2.38v-1.708zm12.992 2.982c1.036.588 2.044 1.386 3.024 2.394l.56-.868c-.971-.924-1.997-1.685-3.08-2.282l-.504.756zm-1.694-7.742c-.401-.859-.821-1.638-1.26-2.338l-.868.42c.439.672.873 1.451 1.302 2.338l.826-.42zm1.806 2.702h-.994v1.54c-.028 1.269-.275 2.305-.742 3.108-.504.775-1.381 1.391-2.632 1.848l.546.854c1.316-.476 2.273-1.157 2.87-2.044.597-.943.915-2.198.952-3.766v-1.54zm-4.466 4.858c-.663.411-1.279.723-1.848.938v-3.262h1.82v-.938h-1.82v-1.736h1.372v-.91h-3.178v.91h.84v1.736h-1.834v.938h1.834v3.15c0 .196-.131.35-.392.462l.406.868c1.129-.336 2.119-.756 2.968-1.26l-.168-.896zM183.464 4.305h2.814v-.952h-2.492c.168-.597.289-1.055.364-1.372l-.966-.196c-.364 1.689-.952 3.225-1.764 4.606l.826.518c.467-.784.873-1.652 1.218-2.604zm10.598-1.876l-.854-.406c-.345.849-.789 1.68-1.33 2.492l.84.448c.551-.802.999-1.647 1.344-2.534zM187.3 11.599h.98v-5.18h4.438v5.124h.98v-6.02h-2.688v-3.808h-.994v3.808h-2.716m10.78-1.764c3.472-.084 6.552-.401 9.24-.952l-.504-.91c-2.884.607-6.127.929-9.73.966v4.2c-.084 2.865-.635 5.105-1.652 6.72l.742.77c1.185-1.876 1.82-4.373 1.904-7.49v-.364h10.08v-.98h-10.08v-1.96zM199.368 14.595h1.008v-.658h5.67v.658h1.008v-5.936h-7.686v5.936zm1.008-4.97h5.67v3.332h-5.67v-3.332zm14.7-6.286h5.516v9.646c0 .42-.163.63-.49.63l-.952-.028.238.924h.924c.84 0 1.26-.411 1.26-1.232v-10.864h-6.496v.924zM219.696 11.655l-.868-.28c-.037.672-.117 1.087-.238 1.246-.093.112-.247.168-.462.168h-.56c-.224 0-.336-.121-.336-.364v-2.058h1.484v-3.766h-1.484c.401-.653.747-1.349 1.036-2.086l-.952-.322c-.299.84-.649 1.643-1.05 2.408h-3.262v3.766h1.414c-.159 1.279-1.013 2.198-2.562 2.758l.518.826c1.773-.756 2.744-1.951 2.912-3.584h1.064v2.254c0 .709.313 1.064.938 1.064h1.008c.411 0 .719-.089.924-.266.233-.205.392-.793.476-1.764zm-5.782-2.128v-2.086h3.878v2.086h-3.878zM214.6 6.489l.812-.406c-.355-.653-.723-1.232-1.106-1.736l-.854.406c.401.495.784 1.074 1.148 1.736zm-4.438-2.492h.98v10.584h-.98zm3.57-.168c-.439-.793-.943-1.517-1.512-2.17l-.924.406c.56.644 1.078 1.386 1.554 2.226l.882-.462zm20.356 4.032l.98.28c.392-.915.695-1.801.91-2.66v-.644h-3.388v-1.218h3.108v-.91h-3.108v-1.036h-.994v1.036h-3.108v.91h3.108v1.218h-3.71v.938h7.028c-.233.812-.509 1.508-.826 2.086zm-6.132.42c.709.355 1.419.845 2.128 1.47l.504-.77c-.635-.551-1.349-1.017-2.142-1.4l-.49.7zM231.624 7.483c-.607-.504-1.279-.943-2.016-1.316l-.476.672c.719.355 1.386.812 2.002 1.372l.49-.728zm-4.788-2.758l.686-.7c-.663-.728-1.442-1.428-2.338-2.1l-.7.686c1.008.747 1.792 1.452 2.352 2.114zm.7 6.216c-.523.56-.891.947-1.106 1.162v-6.062h-2.954v.966h1.974v5.586c0 .215-.103.411-.308.588l.392.91c.812-.625 1.573-1.321 2.282-2.086l-.28-1.064zM232.66 10.801h3.612v-.924h-3.402c.065-.439.103-.849.112-1.232v-2.394h-.98v2.394c-.019.429-.061.84-.126 1.232h-4.004v.924h3.752c-.14.355-.331.714-.574 1.078-.653.812-1.783 1.451-3.388 1.918l.546.84c1.652-.504 2.847-1.209 3.584-2.114.093-.112.191-.257.294-.434 1.269.654 2.511 1.507 3.724 2.562l.56-.854c-1.139-.924-2.436-1.745-3.892-2.464l.182-.532z"/><path fill="#99A59B" d="M64 12.707h11v1h-11zm8-12.5l-8 8-1 4.5 4.5-1 8-8.5-2.5-3h-1zm-7.683 11.183l.574-2.584 2.01 2.01-2.584.574zm3.303-1.27l-2.06-2.06 6.854-6.854h.117l1.633 1.96-6.544 6.954z"/></svg>